<svg
   xmlns:dc="http://purl.org/dc/elements/1.1/"
   xmlns:cc="http://creativecommons.org/ns#"
   xmlns:rdf="http://www.w3.org/1999/02/22-rdf-syntax-ns#"
   xmlns:svg="http://www.w3.org/2000/svg"
   xmlns="http://www.w3.org/2000/svg"
   version="1.1"
   height="50"
   width="50"
   viewBox="0 0 112.000000 104.000000">
<g transform="translate(0.000000,104.000000) scale(0.100000,-0.100000)"
fill="#fff" stroke="none">
<path d="M348 1011 c-129 -47 -194 -106 -264 -241 -28 -54 -29 -59 -29 -210
l0 -155 35 -70 c45 -89 150 -202 228 -243 257 -137 575 -32 707 233 38 77 40
84 43 195 l4 115 -48 90 c-61 116 -108 172 -192 229 -101 69 -159 86 -294 85
-98 0 -124 -4 -190 -28z m173 -51 c43 -12 110 -67 140 -117 31 -50 32 -169 2
-228 -30 -57 -89 -110 -157 -141 -52 -24 -67 -26 -132 -21 -91 7 -144 34 -184
96 -27 39 -30 53 -30 120 0 57 5 86 22 120 28 59 106 136 161 161 46 21 122
26 178 10z"/>
<path d="M355 851 c-37 -16 -58 -48 -53 -82 4 -23 -2 -42 -18 -67 -13 -19 -24
-43 -24 -54 0 -69 99 -109 183 -74 68 28 86 79 46 130 -19 24 -19 27 -5 48 20
29 20 72 1 88 -19 16 -103 23 -130 11z"/>
</g>
</svg>
