<?xml version="1.0" encoding="UTF-8" standalone="no"?>
<svg
   xmlns="http://www.w3.org/2000/svg"
   version="1.1"
   height="50"
   width="50"
   viewBox="0 0 135.000000 100.000000">
<g transform="translate(0.000000,114.000000) scale(0.100000,-0.100000)"
fill="#fff" stroke="none">
<path d="M595 936 c-33 -7 -71 -18 -85 -25 -54 -28 -120 -77 -120 -88 0 -26
-72 -1 -94 31 -11 18 -39 29 -126 51 -61 15 -114 25 -117 22 -3 -4 26 -64 65
-134 l70 -128 73 -21 c48 -14 67 -23 56 -27 -13 -5 -16 -13 -11 -34 13 -54 47
-113 87 -154 46 -46 143 -99 182 -99 l25 0 -20 -50 c-16 -41 -17 -50 -5 -50 8
0 23 19 33 43 l19 42 64 -1 63 -1 19 -41 c10 -23 24 -42 32 -42 12 0 11 9 -5
50 l-20 50 25 0 c41 0 137 52 186 100 48 48 95 147 86 182 -4 14 6 21 55 36
l61 17 69 128 c39 70 68 131 65 134 -4 3 -56 -7 -117 -22 -88 -22 -114 -33
-127 -51 -8 -13 -23 -26 -34 -29 -10 -3 -28 -8 -39 -11 -13 -3 -20 -1 -20 9 0
16 -69 66 -125 90 -42 18 -142 38 -185 36 -14 -1 -52 -6 -85 -13z m180 -30
c61 -16 99 -35 145 -74 l35 -30 -45 -11 c-141 -35 -130 -26 -173 -134 -22 -53
-43 -97 -47 -97 -4 0 -25 44 -47 97 -43 108 -32 99 -173 134 l-45 11 35 30
c91 77 205 104 315 74z m-199 -169 c7 -6 15 -23 19 -36 7 -23 5 -24 -25 -18
-32 7 -32 7 -26 -26 6 -33 6 -33 -25 -29 -27 4 -31 2 -26 -12 4 -9 10 -23 13
-31 5 -11 -1 -15 -23 -15 -32 0 -56 21 -68 58 -6 21 -4 24 22 22 42 -3 45 -2
33 20 -15 29 -5 41 25 30 28 -11 30 -5 15 36 -10 26 -10 26 22 20 18 -4 38
-12 44 -19z m-171 -146 c7 -22 28 -30 165 -62 52 -12 96 -23 98 -25 4 -2 -49
-137 -59 -148 -12 -14 -114 39 -156 81 -60 60 -105 173 -70 173 9 0 18 -9 22
-19z m600 -27 c-17 -59 -55 -115 -98 -148 -44 -34 -127 -70 -137 -59 -4 4 -17
34 -30 66 -12 31 -27 57 -33 57 -7 0 -5 6 3 14 8 8 56 24 105 36 134 32 153
39 160 61 4 10 15 19 25 19 18 0 18 -3 5 -46z"/>
</g>
</svg>
