<?xml version="1.0" encoding="UTF-8" standalone="no"?>
<svg
   xmlns="http://www.w3.org/2000/svg"
   version="1.1"
   height="50"
   width="50"
   viewBox="0 0 93.000000 80.000000">
<g transform="translate(0.000000,80.000000) scale(0.100000,-0.100000)"
fill="#FFFFFF" stroke="none">
<path d="M420 710 c-11 -11 -20 -33 -20 -50 0 -18 8 -37 20 -47 27 -23 25 -30
-12 -53 -34 -20 -96 -26 -157 -14 -27 6 -31 11 -31 39 0 39 -26 65 -67 65 -38
0 -63 -27 -63 -68 0 -35 20 -59 56 -68 17 -4 27 -17 34 -43 5 -20 16 -58 25
-86 8 -27 15 -71 15 -97 l0 -48 245 0 245 0 0 43 c0 35 17 111 46 209 2 9 15
19 29 22 36 9 55 34 55 70 0 40 -26 66 -67 66 -38 0 -60 -25 -65 -70 -3 -33
-6 -36 -53 -47 -61 -15 -111 -4 -145 32 l-24 25 22 20 c22 20 29 64 14 86 -10
15 -47 34 -66 34 -9 0 -25 -9 -36 -20z"/>
<path d="M224 196 c-3 -8 -4 -23 -2 -33 3 -17 20 -18 243 -18 l240 0 0 30 0
30 -238 3 c-201 2 -238 0 -243 -12z"/>
</g>
</svg>
