<?xml version="1.0" encoding="UTF-8" standalone="no"?>
<svg
   xmlns="http://www.w3.org/2000/svg"
   version="1.1"
   height="50"
   width="50"
   viewBox="0 0 130.000000 130.000000">
<g transform="translate(0.000000,130.000000) scale(0.100000,-0.100000)"
fill="#fff" stroke="none">
<path d="M523 1266 c-142 -27 -294 -125 -374 -243 l-30 -43 39 0 c26 0 53 -10
83 -29 24 -16 57 -33 72 -37 25 -6 28 -10 24 -37 -2 -17 2 -46 9 -64 20 -46
17 -93 -7 -132 -27 -45 -19 -103 21 -150 l29 -35 -6 55 c-4 30 -7 65 -7 79
l-1 25 115 0 115 0 0 -85 0 -85 -30 -3 c-16 -1 -59 -5 -95 -8 l-65 -6 27 -22
c24 -19 38 -21 120 -19 51 2 100 4 108 5 30 5 180 -14 185 -22 3 -5 1 -19 -5
-31 -9 -16 -8 -24 6 -40 24 -27 29 -24 44 21 7 22 16 40 20 40 14 0 105 -33
114 -41 12 -11 -44 -71 -91 -100 -19 -12 -33 -29 -33 -40 0 -11 -7 -33 -15
-49 -9 -17 -14 -30 -12 -30 22 0 116 68 173 124 122 122 180 274 172 446 -9
158 -65 285 -172 391 -143 140 -340 201 -533 165z m87 -203 l0 -136 -91 6
c-51 3 -96 10 -102 16 -14 14 56 158 101 204 37 39 70 59 85 50 4 -2 7 -65 7
-140z m149 81 c51 -56 110 -179 93 -196 -5 -5 -50 -12 -101 -15 l-91 -6 0 135
c0 74 3 137 6 140 13 13 48 -8 93 -58z m-309 21 c0 -3 -11 -22 -24 -43 -13
-20 -34 -66 -46 -100 -22 -61 -25 -64 -51 -58 -41 8 -99 34 -99 43 0 17 86 92
144 127 57 35 76 42 76 31z m429 -19 c49 -26 161 -120 161 -138 0 -10 -56 -36
-98 -44 -26 -5 -29 -2 -47 52 -10 31 -32 76 -47 101 -41 63 -40 64 31 29z
m224 -233 c28 -56 43 -102 52 -160 l7 -43 -104 0 -104 0 -12 97 c-7 53 -11 97
-10 98 2 1 35 13 73 27 39 14 71 26 72 27 2 0 13 -20 26 -46z m-535 -40 l42
-5 0 -79 0 -79 -121 0 -121 0 6 28 c3 15 8 56 12 91 l6 63 67 -6 c36 -4 85 -9
109 -13z m316 -20 c3 -21 8 -62 12 -90 l6 -53 -121 0 -121 0 0 79 0 80 58 6
c31 3 66 7 77 9 11 2 34 4 52 5 29 1 32 -2 37 -36z m10 -202 c5 -8 -12 -172
-18 -179 -2 -1 -50 1 -107 5 l-104 8 -3 74 c-2 41 -1 80 2 88 4 10 32 13 115
13 60 0 112 -4 115 -9z m262 -5 c8 -21 -23 -141 -51 -196 l-25 -49 -72 26
c-40 15 -74 28 -76 29 -4 2 17 173 23 192 6 18 194 17 201 -2z"/>
<path d="M105 901 c-85 -53 -108 -111 -80 -207 80 -275 412 -585 645 -602 67
-4 68 -4 109 34 94 84 88 134 -23 215 -54 40 -93 38 -147 -7 -33 -28 -48 -34
-68 -29 -79 20 -311 258 -311 319 0 10 13 34 30 52 40 46 46 77 25 125 -23 49
-97 119 -127 119 -13 0 -36 -8 -53 -19z"/>
</g>
</svg>
