<?xml version="1.0" encoding="UTF-8" standalone="no"?>
<svg
   xmlns="http://www.w3.org/2000/svg"
   version="1.1"
   height="50"
   width="50"
   viewBox="0 0 136.000000 110.000000">
<g transform="translate(0.000000,110.000000) scale(0.100000,-0.100000)"
fill="#fff" stroke="none">
<path d="M560 1015 c0 -26 -8 -59 -20 -80 -11 -20 -20 -53 -20 -73 0 -21 -5
-43 -12 -50 -9 -9 -5 -12 20 -12 18 0 32 5 32 10 0 6 14 10 30 10 17 0 30 5
30 10 0 6 9 10 20 10 28 0 25 -11 -10 -45 -16 -16 -30 -25 -30 -21 0 5 -6 4
-13 -2 -14 -12 -96 -42 -114 -42 -7 0 -13 11 -13 25 0 14 5 25 12 25 6 0 9 2
6 5 -2 3 -19 -2 -36 -10 -45 -23 -62 -65 -62 -152 0 -53 -4 -73 -13 -73 -22 0
-67 -24 -67 -36 0 -6 -9 -19 -20 -29 -15 -14 -20 -31 -20 -71 0 -29 4 -56 10
-59 6 -3 10 -15 10 -26 0 -14 -7 -19 -25 -19 -29 0 -95 -57 -95 -82 0 -10 -4
-18 -10 -18 -5 0 -10 -22 -10 -50 0 -27 5 -50 10 -50 6 0 10 -7 10 -15 0 -9
11 -27 25 -40 24 -24 28 -25 180 -25 106 0 162 4 175 12 16 10 24 10 40 0 13
-8 60 -12 130 -12 71 0 117 -4 130 -12 17 -11 22 -10 29 0 7 12 12 12 31 0 18
-10 24 -10 27 0 3 8 32 12 94 12 53 0 89 4 89 10 0 6 7 10 16 10 9 0 31 15 50
34 32 32 34 39 34 98 0 59 -2 66 -33 96 -18 18 -42 32 -53 32 -25 0 -60 35
-45 45 6 3 11 34 11 69 0 57 -3 65 -33 94 -21 20 -43 32 -60 32 -26 0 -27 2
-28 58 -1 77 -23 115 -73 123 -21 3 -45 14 -54 23 -15 15 -15 18 -2 26 12 8
13 13 3 30 -7 11 -13 29 -13 39 0 11 -4 23 -10 26 -5 3 -10 13 -10 21 0 18
-65 84 -82 84 -8 0 -20 9 -28 20 -8 11 -20 20 -27 20 -7 0 -13 5 -13 10 0 6
-9 10 -20 10 -11 0 -20 5 -20 10 0 6 -4 10 -10 10 -13 0 -13 -37 0 -42 12 -4
-10 -58 -22 -58 -5 0 -8 23 -8 50 0 28 -4 50 -10 50 -5 0 -10 -20 -10 -45z
m26 -409 c8 -8 14 -22 14 -30 0 -9 5 -16 10 -16 6 0 10 -34 10 -81 0 -78 -1
-82 -31 -110 -21 -19 -26 -29 -16 -29 24 0 30 -18 13 -35 -16 -17 -126 -22
-126 -6 0 5 24 14 53 19 l52 10 -48 1 c-40 1 -53 6 -82 36 -34 33 -35 37 -35
110 0 72 2 77 33 110 28 30 38 34 85 34 34 1 59 -4 68 -13z m345 -13 c35 -39
49 -76 49 -133 0 -43 -5 -55 -36 -90 -32 -35 -42 -40 -80 -40 -38 0 -50 6 -79
35 -26 26 -35 43 -35 69 0 19 -6 36 -12 39 -10 4 -10 7 0 18 6 7 12 27 12 45
0 20 9 40 26 58 22 21 36 26 78 26 44 0 56 -4 77 -27z m-31 -335 c0 -16 -30
-48 -45 -48 -7 0 -18 -7 -25 -15 -26 -31 -73 -45 -152 -45 -45 0 -78 4 -78 10
0 6 -9 10 -20 10 -11 0 -20 5 -20 10 0 6 -7 10 -15 10 -20 0 -65 45 -65 65 0
13 27 15 210 15 154 0 210 -3 210 -12z"/>
<path d="M472 558 c-7 -7 -12 -20 -12 -30 0 -10 -4 -18 -10 -18 -15 0 -10 -42
9 -75 19 -33 62 -45 87 -24 19 16 19 125 0 145 -18 17 -58 18 -74 2z"/>
<path d="M825 557 c-5 -7 -11 -19 -13 -27 -2 -8 -8 -16 -13 -18 -13 -5 -11
-50 2 -54 5 -2 11 -10 12 -18 5 -28 18 -40 46 -40 41 0 51 17 51 85 0 34 -5
66 -12 73 -16 16 -60 15 -73 -1z"/>
</g>
</svg>
