<?xml version="1.0" encoding="UTF-8" standalone="no"?>
<svg
   xmlns="http://www.w3.org/2000/svg"
   version="1.1"
   height="50"
   width="50"
   viewBox="0 0 142.000000 136.000000">
<g transform="translate(0.000000,136.000000) scale(0.100000,-0.100000)"
fill="#fff" stroke="none">
<path d="M606 1274 c-14 -13 -16 -52 -16 -275 l0 -259 40 0 40 0 2 223 3 222
195 0 195 0 3 -324 c2 -230 -1 -328 -9 -337 -9 -11 -48 -14 -170 -14 l-159 0
0 -60 0 -60 50 0 c46 0 50 2 50 24 0 13 7 29 15 36 24 20 65 -3 65 -35 0 -20
5 -25 26 -25 23 0 26 -3 22 -25 -5 -25 -5 -25 73 -25 129 0 119 -40 119 478 0
413 -1 440 -18 455 -16 15 -50 17 -265 17 -210 0 -248 -2 -261 -16z"/>
<path d="M1198 1173 c-15 -4 -18 -16 -18 -77 l0 -73 58 13 c60 14 87 37 99 82
10 41 -8 57 -68 59 -30 0 -62 -1 -71 -4z"/>
<path d="M451 893 c-46 -32 -97 -75 -113 -95 -34 -41 -270 -669 -266 -703 3
-19 12 -20 274 -23 l272 -2 101 50 c120 60 151 96 185 208 7 22 6 22 -86 22
l-93 0 -21 -38 c-33 -57 -104 -132 -124 -132 -35 0 -32 21 9 70 72 85 85 116
91 208 l5 82 128 3 c127 2 129 2 153 30 29 34 31 67 5 98 -19 23 -24 24 -223
29 l-203 5 -5 123 -5 123 -84 -58z"/>
<path d="M1180 880 l0 -70 43 0 c62 0 89 34 74 91 -7 29 -43 49 -87 49 l-30 0
0 -70z"/>
<path d="M1180 710 l0 -70 38 0 c55 0 82 23 82 70 0 47 -27 70 -82 70 l-38 0
0 -70z"/>
</g>
</svg>
