<?xml version="1.0" encoding="UTF-8" standalone="no"?>
<svg
   xmlns="http://www.w3.org/2000/svg"
   version="1.1"
   height="50"
   width="50"
   viewBox="0 0 82.000000 78.000000">
<g transform="translate(0.000000,78.000000) scale(0.100000,-0.100000)"
fill="#fff" stroke="none">
<path d="M407 763 c-4 -3 -7 -21 -7 -39 0 -31 -3 -33 -56 -49 -37 -11 -71 -30
-101 -58 -47 -43 -93 -124 -93 -164 0 -19 -6 -22 -42 -25 -59 -4 -60 -32 -2
-36 39 -3 41 -4 53 -52 24 -94 116 -183 203 -196 35 -6 37 -9 40 -47 4 -56 26
-60 30 -6 3 41 4 42 50 54 96 24 175 104 200 203 10 40 12 42 49 42 32 0 39 3
39 20 0 16 -7 20 -37 20 -38 0 -38 0 -56 61 -23 79 -100 161 -168 179 -66 18
-74 24 -77 64 -3 34 -11 44 -25 29z m-7 -162 c0 -33 -4 -40 -29 -51 -36 -14
-76 -56 -90 -92 -9 -23 -17 -28 -45 -28 -19 0 -38 4 -41 10 -9 14 32 100 63
134 28 30 95 65 125 66 13 0 17 -8 17 -39z m145 1 c43 -30 92 -102 97 -142 3
-23 -1 -25 -38 -28 -37 -3 -42 0 -48 21 -9 36 -44 75 -87 97 -34 18 -39 25
-39 57 l0 36 37 -6 c21 -4 56 -19 78 -35z m-141 -107 c3 -8 10 -15 16 -15 5 0
10 7 10 15 0 23 28 18 55 -10 28 -27 33 -55 10 -55 -8 0 -15 -7 -15 -15 0 -9
7 -18 15 -21 22 -9 18 -28 -11 -58 -32 -31 -44 -33 -51 -6 -3 11 -10 20 -15
20 -5 0 -12 -9 -15 -20 -7 -27 -16 -25 -52 11 -36 36 -38 45 -11 52 23 6 27
37 6 37 -27 0 -26 18 0 49 28 34 49 39 58 16z m-109 -148 c15 -31 31 -47 62
-62 40 -19 42 -22 43 -64 0 -42 -1 -43 -27 -37 -78 19 -160 101 -177 179 -6
26 -5 27 36 27 41 -1 44 -3 63 -43z m345 23 c0 -59 -65 -140 -138 -172 -55
-25 -72 -18 -72 26 0 31 5 36 48 57 35 18 52 34 67 66 18 38 23 42 58 43 31 0
37 -3 37 -20z"/>
</g>
</svg>
