<?xml version="1.0" encoding="UTF-8" standalone="no"?>
<svg
   xmlns="http://www.w3.org/2000/svg"
   version="1.1"
   height="50"
   width="50"
   viewBox="0 0 148.000000 106.000000">
<g transform="translate(0.000000,106.000000) scale(0.100000,-0.100000)"
fill="#fff" stroke="none">
<path d="M498 1007 c-15 -18 -28 -40 -28 -49 0 -10 -4 -18 -8 -18 -5 0 -14
-24 -21 -54 -12 -53 -25 -66 -68 -70 -7 -1 -32 -20 -56 -42 -47 -44 -82 -107
-93 -164 -4 -19 -12 -41 -17 -48 -17 -21 -33 -360 -19 -383 28 -44 15 -55 -63
-49 -64 5 -69 6 -93 18 -22 13 -22 13 -22 -68 l0 -80 706 0 705 0 -3 23 c-3
20 -7 22 -63 19 -40 -2 -55 0 -46 7 8 5 15 22 15 38 1 29 1 29 -62 31 -38 1
-76 8 -95 19 -38 21 -147 123 -147 138 0 5 -16 25 -35 42 -19 18 -35 35 -35
39 0 3 -22 31 -50 61 -55 63 -69 102 -47 136 23 35 30 102 12 117 -8 7 -15 18
-15 26 0 7 -40 56 -90 107 -89 93 -90 95 -90 144 0 67 -27 93 -96 93 -43 -1
-52 -5 -76 -33z m338 -769 c4 -12 16 -35 26 -49 13 -18 22 -49 25 -92 5 -63 5
-67 -20 -78 -20 -9 -31 -8 -59 6 -27 15 -60 18 -180 19 -121 1 -150 4 -163 17
-15 15 -14 17 18 33 19 9 69 47 110 86 41 38 80 70 86 70 6 0 11 8 11 17 0 9
14 32 31 49 l31 32 38 -44 c21 -24 42 -54 46 -66z"/>
</g>
</svg>
