<?xml version="1.0" encoding="UTF-8" standalone="no"?>
<svg
   xmlns="http://www.w3.org/2000/svg"
   version="1.1"
   height="50"
   width="50"
   viewBox="0 0 106.000000 106.000000">
<g transform="translate(0.000000,106.000000) scale(0.100000,-0.100000)"
fill="#fff" stroke="none">
<path d="M370 854 c-81 -21 -188 -75 -247 -124 -29 -24 -53 -46 -53 -50 0 -3
13 -16 29 -28 l30 -22 75 54 c41 30 103 63 138 75 176 60 372 26 515 -87 29
-23 56 -42 61 -42 5 0 19 11 32 25 27 29 23 36 -50 90 -67 49 -158 93 -232
110 -79 19 -226 18 -298 -1z"/>
<path d="M445 689 c-75 -12 -129 -36 -197 -86 l-62 -46 34 -27 34 -28 30 25
c61 51 126 76 213 81 101 5 169 -14 242 -69 l51 -39 31 28 32 28 -44 36 c-61
49 -119 77 -198 94 -73 15 -93 16 -166 3z"/>
<path d="M430 505 c-25 -8 -61 -28 -80 -44 l-35 -30 33 -30 33 -30 20 20 c28
28 62 39 125 39 58 0 107 -19 122 -47 8 -14 14 -12 43 16 l34 32 -34 29 c-66
57 -167 74 -261 45z"/>
<path d="M455 305 c-32 -31 -32 -75 -1 -112 19 -22 32 -28 66 -28 76 0 116 80
69 139 -29 36 -99 37 -134 1z"/>
</g>
</svg>
